<svg xmlns="http://www.w3.org/2000/svg" version="1.1" viewBox="0 0 131 32">
  <defs>
    <style>
      .st0 {
        fill: #00a3e0;
      }

      .st1 {
        fill: #091e2e;
      }
    </style>
  </defs>
  <path class="st1" d="M129.5,29.4v-2.2c0,0,0-3.1,0-3.1,0-.7-.2-1.2-.6-1.5-.4-.4-1-.6-1.7-.6s-1,0-1.5.3c-.5.2-.9.4-1.2.7l-.7-1.2c.4-.4,1-.6,1.6-.8.6-.2,1.3-.3,2-.3,1.2,0,2.1.3,2.7.9.6.6,1,1.5,1,2.6v5.2h-1.5ZM126.7,29.5c-.6,0-1.2-.1-1.7-.3-.5-.2-.8-.5-1.1-.9-.3-.4-.4-.8-.4-1.3s.1-.9.3-1.3c.2-.4.6-.7,1.1-.9.5-.2,1.2-.3,2.1-.3h2.7v1.1h-2.7c-.8,0-1.3.1-1.6.4-.3.3-.4.6-.4.9s.2.8.5,1c.3.3.8.4,1.4.4s1.1-.1,1.5-.4c.4-.3.8-.6,1-1.1l.3,1.1c-.2.5-.6.9-1.1,1.2-.5.3-1.2.4-2,.4Z"/>
  <path class="st1" d="M117.8,20.6c.7,0,1.3.1,1.9.4.5.3,1,.7,1.3,1.2.3.6.5,1.3.5,2.1v5h-1.6v-4.8c0-.8-.2-1.5-.6-1.9-.4-.4-1-.6-1.7-.6s-1,.1-1.5.3c-.4.2-.7.5-1,1-.2.4-.3,1-.3,1.6v4.5h-1.6v-8.6h1.5v2.3l-.2-.6c.3-.6.7-1,1.3-1.3.6-.3,1.3-.5,2.1-.5Z"/>
  <path class="st1" d="M106.5,29.4l-3.8-8.6h1.6l3.4,7.8h-.8l3.4-7.8h1.5l-3.8,8.6h-1.6Z"/>
  <path class="st1" d="M98,29.5c-.9,0-1.6-.2-2.3-.6-.7-.4-1.2-.9-1.6-1.6-.4-.7-.6-1.4-.6-2.3s.2-1.6.6-2.3c.4-.7.9-1.2,1.6-1.5.7-.4,1.4-.6,2.3-.6s1.6.2,2.3.6c.7.4,1.2.9,1.6,1.5.4.7.6,1.4.6,2.3s-.2,1.6-.6,2.3c-.4.7-.9,1.2-1.6,1.6-.7.4-1.4.6-2.3.6ZM98,28.1c.6,0,1-.1,1.5-.4.4-.3.8-.6,1-1.1.3-.5.4-1,.4-1.6s-.1-1.2-.4-1.6c-.2-.5-.6-.8-1-1.1-.4-.3-.9-.4-1.5-.4s-1,.1-1.5.4c-.4.3-.8.6-1,1.1-.3.4-.4,1-.4,1.6s.1,1.1.4,1.6c.3.5.6.8,1,1.1.4.3.9.4,1.5.4Z"/>
  <path class="st1" d="M91,29.5c-.9,0-1.5-.2-2-.7-.5-.5-.7-1.1-.7-2v-7.9h1.6v7.9c0,.5.1.8.3,1.1.2.3.6.4,1,.4s.9-.1,1.2-.4l.5,1.1c-.2.2-.5.4-.9.5-.3,0-.7.1-1,.1ZM86.8,22v-1.3h5.5v1.3h-5.5ZM91.2,19.6v-2h1.2v2h-1.2Z"/>
  <path class="st1" d="M82.5,29.5c-.7,0-1.4,0-2.1-.3-.6-.2-1.1-.4-1.5-.7l.7-1.2c.4.3.8.5,1.4.6.5.2,1.1.3,1.7.3s1.3-.1,1.6-.3c.3-.2.5-.5.5-.9s0-.5-.3-.6c-.2-.2-.5-.3-.8-.3-.3,0-.7-.1-1.1-.2-.4,0-.8-.1-1.2-.2-.4,0-.8-.2-1.1-.4-.3-.2-.6-.4-.8-.7-.2-.3-.3-.7-.3-1.2s.1-1,.4-1.4c.3-.4.7-.7,1.2-.9.5-.2,1.2-.3,1.9-.3s1.1,0,1.7.2c.6.1,1.1.3,1.4.6l-.7,1.2c-.4-.3-.8-.4-1.2-.5s-.8-.1-1.3-.1c-.7,0-1.2.1-1.5.3-.3.2-.5.5-.5.8s0,.5.3.7c.2.2.5.3.8.4.3,0,.7.2,1.1.2.4,0,.8.1,1.2.2.4,0,.7.2,1.1.4.3.2.6.4.8.7.2.3.3.7.3,1.2s-.2,1-.5,1.4c-.3.4-.7.7-1.3.9-.6.2-1.2.3-2,.3Z"/>
  <path class="st1" d="M75.6,29.4v-8.6h1.6v8.6h-1.6Z"/>
  <path class="st1" d="M70,32c-.4,0-.7,0-1-.1-.3,0-.6-.2-.8-.4l.5-1.2c.3.3.8.4,1.3.4s.7-.1.9-.4c.2-.3.3-.6.3-1.1v-8.4h1.6v8.4c0,.9-.2,1.6-.7,2.1-.5.5-1.1.8-2,.8Z"/>
  <path class="st1" d="M64.6,29.5c-.9,0-1.6-.2-2.3-.6-.7-.4-1.2-.9-1.6-1.6-.4-.7-.6-1.4-.6-2.3s.2-1.6.6-2.3c.4-.7.9-1.2,1.6-1.5.7-.4,1.4-.6,2.3-.6s1.6.2,2.3.6c.7.4,1.2.9,1.6,1.5.4.7.6,1.4.6,2.3s-.2,1.6-.6,2.3c-.4.7-.9,1.2-1.6,1.6-.7.4-1.4.6-2.3.6ZM64.6,28.1c.6,0,1-.1,1.5-.4.4-.3.8-.6,1-1.1.3-.5.4-1,.4-1.6s-.1-1.2-.4-1.6c-.3-.5-.6-.8-1-1.1-.4-.3-.9-.4-1.5-.4s-1,.1-1.5.4c-.4.3-.8.6-1,1.1-.3.4-.4,1-.4,1.6s.1,1.1.4,1.6c.3.5.6.8,1,1.1.4.3.9.4,1.5.4Z"/>
  <path class="st1" d="M54.6,29.5c-.7,0-1.4-.2-2-.5-.6-.3-1.1-.8-1.4-1.5-.3-.7-.5-1.5-.5-2.4s.2-1.8.5-2.4c.3-.7.8-1.1,1.4-1.5.6-.3,1.3-.5,2-.5s1.6.2,2.3.6c.7.4,1.2.9,1.5,1.5.4.7.6,1.4.6,2.3s-.2,1.7-.6,2.3c-.4.7-.9,1.2-1.5,1.5-.7.4-1.4.6-2.3.6ZM50,31.9v-11.2h1.5v4.3c0,0,0,2,0,2v4.8h-1.6ZM54.4,28.1c.6,0,1-.1,1.5-.4.4-.3.8-.6,1-1.1.3-.5.4-1,.4-1.6s-.1-1.2-.4-1.6c-.3-.5-.6-.8-1-1.1-.4-.3-.9-.4-1.5-.4s-1,.1-1.5.4c-.4.3-.8.6-1,1.1-.3.4-.4,1-.4,1.6s.1,1.1.4,1.6c.3.5.6.8,1,1.1.4.3.9.4,1.5.4Z"/>
  <path class="st1" d="M122.9,12.7V4h1.6v8.6h-1.6Z"/>
  <path class="st1" d="M116.6,3.9c.7,0,1.3.1,1.9.4.5.3,1,.7,1.3,1.2.3.6.5,1.3.5,2.1v5h-1.6v-4.8c0-.8-.2-1.5-.6-1.9-.4-.4-1-.6-1.7-.6s-1,.1-1.5.3-.7.5-1,1c-.2.4-.3,1-.3,1.6v4.5h-1.6V4h1.5v2.3l-.2-.6c.3-.6.7-1,1.3-1.3.6-.3,1.3-.5,2.1-.5Z"/>
  <path class="st1" d="M108.4,12.8c-.9,0-1.5-.2-2-.7-.5-.5-.7-1.1-.7-2V2.1h1.6v7.9c0,.5.1.8.3,1.1.2.3.6.4,1,.4s.9-.1,1.2-.4l.5,1.1c-.2.2-.5.4-.9.5-.3,0-.7.1-1,.1ZM104.2,5.3v-1.3h5.5v1.3h-5.5Z"/>
  <path class="st1" d="M98.9,12.8c-.9,0-1.6-.2-2.3-.6-.7-.4-1.2-.9-1.6-1.6-.4-.7-.6-1.4-.6-2.3s.2-1.6.6-2.3c.4-.7.9-1.2,1.6-1.5.7-.4,1.4-.6,2.3-.6s1.6.2,2.3.6c.7.4,1.2.9,1.6,1.5.4.7.6,1.4.6,2.3s-.2,1.6-.6,2.3c-.4.7-.9,1.2-1.6,1.6-.7.4-1.4.6-2.3.6ZM98.9,11.4c.6,0,1-.1,1.5-.4.4-.3.8-.6,1-1.1.3-.5.4-1,.4-1.6s-.1-1.2-.4-1.6c-.2-.5-.6-.8-1-1.1-.4-.3-.9-.4-1.5-.4s-1,.1-1.5.4c-.4.3-.8.6-1,1.1-.3.4-.4,1-.4,1.6s.1,1.1.4,1.6c.3.5.6.8,1,1.1.4.3.9.4,1.5.4Z"/>
  <path class="st1" d="M88.8,12.7l-3.8-8.6h1.6l3.4,7.8h-.8l3.4-7.8h1.5l-3.8,8.6h-1.6Z"/>
  <path class="st1" d="M82.4,12.7v-2.2c0,0,0-3.1,0-3.1,0-.7-.2-1.2-.6-1.5-.4-.4-1-.6-1.7-.6s-1,0-1.5.3c-.5.2-.9.4-1.2.7l-.7-1.2c.4-.4,1-.6,1.6-.8.6-.2,1.3-.3,2-.3,1.2,0,2.1.3,2.7.9.6.6,1,1.5,1,2.6v5.2h-1.5ZM79.6,12.8c-.6,0-1.2-.1-1.7-.3-.5-.2-.8-.5-1.1-.9-.3-.4-.4-.8-.4-1.3s.1-.9.3-1.3c.2-.4.6-.7,1.1-.9.5-.2,1.2-.3,2.1-.3h2.7v1.1h-2.7c-.8,0-1.3.1-1.6.4-.3.3-.4.6-.4.9s.2.8.5,1c.3.3.8.4,1.4.4s1.1-.1,1.5-.4c.4-.3.8-.6,1-1.1l.3,1.1c-.2.5-.6.9-1.1,1.2-.5.3-1.2.4-2,.4Z"/>
  <path class="st1" d="M71.3,12.7V4h1.5v2.3-.6c0-.6.5-1.1,1.1-1.4.6-.3,1.3-.5,2.1-.5v1.5c0,0-.1,0-.2,0h-.2c-.8,0-1.5.3-2,.8-.5.5-.7,1.2-.7,2.2v4.3h-1.6Z"/>
  <path class="st1" d="M63.9,12.8c-.8,0-1.6-.2-2.3-.6-.7-.4-1.2-.9-1.5-1.5-.4-.7-.6-1.4-.6-2.3s.2-1.6.6-2.3c.4-.7.9-1.2,1.5-1.5.7-.4,1.4-.6,2.3-.6s1.4.2,2,.5,1.1.8,1.4,1.5c.4.7.5,1.5.5,2.4s-.2,1.8-.5,2.4c-.3.7-.8,1.1-1.4,1.5-.6.3-1.3.5-2,.5ZM64,11.4c.5,0,1-.1,1.5-.4.4-.3.8-.6,1-1.1.3-.5.4-1,.4-1.6s-.1-1.2-.4-1.6c-.3-.5-.6-.8-1-1.1-.4-.3-.9-.4-1.5-.4s-1,.1-1.5.4c-.4.3-.8.6-1,1.1-.3.4-.4,1-.4,1.6s.1,1.1.4,1.6c.3.5.6.8,1,1.1.4.3.9.4,1.5.4ZM67,12.7v-4.3c0,0,0-2,0-2V.6h1.6v12.1h-1.5Z"/>
  <path class="st1" d="M49.2,12.7v-1.1l7.7-9.5.2.6h-7.7v-1.4h9.2v1.1l-7.7,9.5-.2-.6h8.1v1.4h-9.5Z"/>
  <rect class="st1" x="75.6" y="17.5" width="1.6" height="1.6"/>
  <rect class="st1" x="71.2" y="17.5" width="1.6" height="1.6"/>
  <path class="st1" d="M84.5,18.5l-1.9,1-1.9-1v-1.3l1.9,1,1.9-1v1.3Z"/>
  <path class="st1" d="M125.8,1.3l-2.9,1.6v-1.3L125.8,0v1.3Z"/>
  <path class="st0" d="M10.1,24.2c2.1-.6,3.1-2.1,3.1-4.5s-.5-2.8-1.4-3.5c-.9-.7-2.5-1.1-4.7-1.1H1.8v14.3h2.4v-12.1h3.1c1.3,0,2.2.2,2.7.5.5.3.8,1,.8,1.9s-.2,1.6-.7,2c-.5.4-1.3.6-2.6.6v2.2l3.4,4.8h3.1l-3.7-5.2h0Z"/>
  <path class="st1" d="M24.7,26.7c-.5.3-1.1.4-2,.4h-3.8v-9.8h3.1c.9,0,1.5.2,2,.4.4.3.6.8.6,1.5,0,1.2-.8,1.7-2.5,1.8v2.2h.3c2,0,3,.6,3,1.9s-.2,1.3-.7,1.6M27.1,23.2c-.5-.6-1.2-1-2.1-1.2.2-.1.4-.2.5-.2,0,0,.3-.2.5-.4.7-.5,1.1-1.4,1.1-2.5s-.3-1.8-1-2.5c-.3-.4-.9-.7-1.6-.9-.7-.2-1.5-.3-2.5-.3h-5.6v14.3h6.3c2,0,3.3-.4,4.1-1.3.7-.8,1-1.6,1-2.6s-.3-1.7-.8-2.3h0Z"/>
  <path class="st1" d="M40.3,16.4c-1-.8-2.6-1.2-4.7-1.2h-4.9v14.3h2.4v-12.1h2.5c1.3,0,2.3.2,2.9.6.6.4.9,1.1.9,2.1s-.2,1.7-.7,2.2c-.4.5-1.2.7-2.3.8v2.2c1.8,0,3.1-.5,4-1.2,1-.8,1.5-2.1,1.5-3.8s-.5-3-1.5-3.8h0Z"/>
  <path class="st0" d="M7.6,10.2c1.1-1.2,1.9-2.1,2.4-2.9.4-.7.6-1.5.6-2.4,0-1.5-.5-2.6-1.5-3.5C8.1.7,7,.2,5.6.2s-2.4.3-3.3.8c-.9.5-1.6,1.3-2.3,2.4l2.2,1.3c.9-1.3,2-2,3.3-2s1.4.2,1.9.7c.5.4.7,1,.7,1.6s-.2,1.3-.7,1.9c-.5.6-1.2,1.5-2.3,2.6l-3.2,3.2h3.4l2.4-2.5h0s0,0,0,0Z"/>
  <path class="st1" d="M19,.6h-5.8v2.4h3.3v9.7h2.6V.6Z"/>
  <path class="st1" d="M33.6,11.6c0-1.2-.4-2.3-1.2-3.2-.8-.9-2-1.3-3.4-1.4l3.9-4.3V.6h-9.4v2.4h5.8l-3.7,4.3v2.1c.6-.2,1.1-.3,1.7-.3,1.2,0,2.1.2,2.8.7.7.5,1,1.1,1,2s0,.6-.2.9h2.6c0-.4,0-.7,0-1.1"/>
</svg>
