<svg id="Group_2" data-name="Group 2" xmlns="http://www.w3.org/2000/svg" xmlns:xlink="http://www.w3.org/1999/xlink" width="172.012" height="44.136" viewBox="0 0 172.012 44.136">
  <defs>
    <clipPath id="clip-path">
      <rect id="Rectangle_2" data-name="Rectangle 2" width="172.012" height="44.136" fill="#283796"/>
    </clipPath>
  </defs>
  <g id="Group_1" data-name="Group 1" clip-path="url(#clip-path)">
    <path id="Path_1" data-name="Path 1" d="M132.288,14.382a1.076,1.076,0,0,0-.1.474q0,.835,1.086.835h3.106q1.094,0,1.1-.775t-1.1-.77h-2.187l2.7-3.952a4.754,4.754,0,0,0,.35-.565,1,1,0,0,0,.1-.452.668.668,0,0,0-.329-.622,2.021,2.021,0,0,0-1-.194h-2.625q-1.1,0-1.1.76a.646.646,0,0,0,.267.573,1.516,1.516,0,0,0,.833.181h2l-2.769,3.969a4.475,4.475,0,0,0-.329.538" transform="translate(-90.292 -5.497)" fill="#283796" fill-rule="evenodd"/>
    <path id="Path_2" data-name="Path 2" d="M150.706,15.593a1.643,1.643,0,0,0,.636.1h1.411a3.491,3.491,0,0,0,1.386-.26,2.88,2.88,0,0,0,1.043-.754,3.334,3.334,0,0,0,.658-1.184,4.961,4.961,0,0,0,.224-1.543,4.445,4.445,0,0,0-.1-.967,4.013,4.013,0,0,0-.288-.846,3.535,3.535,0,0,0-.448-.711,2.873,2.873,0,0,0-.6-.551,3.544,3.544,0,0,0-2.022-.514H151.36a1.43,1.43,0,0,0-.655.124.653.653,0,0,0-.323.375,2.1,2.1,0,0,0-.089.675V14.64a1.693,1.693,0,0,0,.094.634.584.584,0,0,0,.318.319m1.135-5.677h.675q1.872,0,1.871,2.024,0,2.207-1.844,2.206h-.7Z" transform="translate(-102.66 -5.497)" fill="#283796" fill-rule="evenodd"/>
    <path id="Path_3" data-name="Path 3" d="M176.115,10.652a2.163,2.163,0,0,0-.675-1.663,2.7,2.7,0,0,0-1.909-.627h-1.2a1.431,1.431,0,0,0-.655.124.654.654,0,0,0-.323.375,2.1,2.1,0,0,0-.089.675V14.6a1.673,1.673,0,0,0,.189.895.648.648,0,0,0,.585.289q.772,0,.772-1.184V12.8l1.8,2.442a2.352,2.352,0,0,0,.427.456.65.65,0,0,0,.4.144.685.685,0,0,0,.526-.227.793.793,0,0,0,.21-.558,1.607,1.607,0,0,0-.461-.957l-1.221-1.464a1.952,1.952,0,0,0,1.2-.67,2,2,0,0,0,.426-1.309m-1.866.789a1.017,1.017,0,0,1-.728.239h-.712V9.9h.731a1.19,1.19,0,0,1,.527.107.715.715,0,0,1,.326.3.944.944,0,0,1,.11.468.873.873,0,0,1-.255.668" transform="translate(-116.982 -5.497)" fill="#283796" fill-rule="evenodd"/>
    <path id="Path_4" data-name="Path 4" d="M187.7,15.493a.729.729,0,0,0,.377.1q.518,0,.741-.739l.232-.737h2.507l.191.677a1.423,1.423,0,0,0,.316.61.666.666,0,0,0,.495.2.741.741,0,0,0,.542-.218.761.761,0,0,0,.221-.567,1.823,1.823,0,0,0-.1-.529L191.5,9.026a1.547,1.547,0,0,0-.447-.721,1.026,1.026,0,0,0-.688-.249,1,1,0,0,0-.711.267,1.961,1.961,0,0,0-.474.816l-1.765,5.18a1.4,1.4,0,0,0-.075.483.868.868,0,0,0,.1.412.672.672,0,0,0,.264.28m2.626-5.641.782,2.718h-1.62Z" transform="translate(-127.963 -5.295)" fill="#283796" fill-rule="evenodd"/>
    <path id="Path_5" data-name="Path 5" d="M208.091,15.438a.613.613,0,0,0,.231.2.712.712,0,0,0,.318.065.668.668,0,0,0,.466-.162,1.283,1.283,0,0,0,.318-.532l2-5.5a1.672,1.672,0,0,0,.1-.579.77.77,0,0,0-.2-.564.733.733,0,0,0-.548-.206.591.591,0,0,0-.458.177,1.613,1.613,0,0,0-.306.6l-1.327,4.1-1.431-4.163a1.458,1.458,0,0,0-.288-.552.563.563,0,0,0-.419-.168.759.759,0,0,0-.573.237.821.821,0,0,0-.229.593,1.336,1.336,0,0,0,.089.479l2.068,5.608a1.58,1.58,0,0,0,.186.365" transform="translate(-140.538 -5.362)" fill="#283796" fill-rule="evenodd"/>
    <path id="Path_6" data-name="Path 6" d="M226.29,15.231a3.219,3.219,0,0,0,1.359.28,3.284,3.284,0,0,0,1.359-.276,3.033,3.033,0,0,0,1.059-.794,3.624,3.624,0,0,0,.682-1.23,5.355,5.355,0,0,0,0-3.162,3.509,3.509,0,0,0-.688-1.23A3.051,3.051,0,0,0,229,8.034a3.436,3.436,0,0,0-2.694,0,2.974,2.974,0,0,0-1.057.79,3.614,3.614,0,0,0-.684,1.23,4.919,4.919,0,0,0-.24,1.581,5.014,5.014,0,0,0,.237,1.574,3.631,3.631,0,0,0,.677,1.23,3.02,3.02,0,0,0,1.056.792m.165-5.268a1.472,1.472,0,0,1,2.06-.344,1.766,1.766,0,0,1,.578.8,3.382,3.382,0,0,1,.205,1.235,3.158,3.158,0,0,1-.207,1.193,1.786,1.786,0,0,1-.582.792,1.468,1.468,0,0,1-1.715,0,1.788,1.788,0,0,1-.582-.792,3.158,3.158,0,0,1-.207-1.193,2.834,2.834,0,0,1,.448-1.692" transform="translate(-153.225 -5.101)" fill="#283796" fill-rule="evenodd"/>
    <path id="Path_7" data-name="Path 7" d="M247.457,15.488a.646.646,0,0,0,.58.294q.773,0,.773-1.184V9.916h.572q1.1,0,1.1-.77,0-.786-1.1-.785h-2.688q-1.1,0-1.1.785t1.1.77h.569V14.6a1.646,1.646,0,0,0,.194.89" transform="translate(-167.757 -5.497)" fill="#283796" fill-rule="evenodd"/>
    <path id="Path_8" data-name="Path 8" d="M263.076,15.6q.773,0,.773-1.184V11.044l2.794,3.993a1.147,1.147,0,0,0,.885.608.6.6,0,0,0,.537-.256,1.447,1.447,0,0,0,.17-.786V9.272q0-1.189-.772-1.187t-.774,1.187v3.433l-2.85-4.072a1.571,1.571,0,0,0-.382-.407.754.754,0,0,0-.438-.13q-.718,0-.717,1.117v5.206a1.671,1.671,0,0,0,.189.893.648.648,0,0,0,.585.289" transform="translate(-179.168 -5.315)" fill="#283796" fill-rule="evenodd"/>
    <path id="Path_9" data-name="Path 9" d="M284.926,14.418a1.671,1.671,0,0,0,.189.893.647.647,0,0,0,.585.289q.773,0,.773-1.182V9.272q0-1.189-.773-1.187t-.774,1.187Z" transform="translate(-194.622 -5.315)" fill="#283796" fill-rule="evenodd"/>
    <path id="Path_10" data-name="Path 10" d="M285.956,2.061l.726-.866a.924.924,0,0,0,.246-.579.6.6,0,0,0-.175-.436A.573.573,0,0,0,286.328,0a.625.625,0,0,0-.541.328l-.7,1.031a.785.785,0,0,0-.164.454.594.594,0,0,0,.14.407.473.473,0,0,0,.377.161.725.725,0,0,0,.513-.321" transform="translate(-194.622 -0.001)" fill="#283796" fill-rule="evenodd"/>
    <path id="Path_11" data-name="Path 11" d="M135.054,48.1q.773,0,.773-1.184V45.658h1.038a2.558,2.558,0,0,0,1.273-.3,1.937,1.937,0,0,0,.808-.859,2.977,2.977,0,0,0,.275-1.328,2.793,2.793,0,0,0-.3-1.314,2.067,2.067,0,0,0-.855-.869,2.727,2.727,0,0,0-1.331-.308h-1.392a1.429,1.429,0,0,0-.655.124.652.652,0,0,0-.323.375,2.1,2.1,0,0,0-.089.675v5.064a1.672,1.672,0,0,0,.189.9.647.647,0,0,0,.585.289m.773-5.887h.663a1.162,1.162,0,0,1,.8.232.93.93,0,0,1,.258.725.943.943,0,0,1-.264.728,1.129,1.129,0,0,1-.79.244h-.663Z" transform="translate(-91.721 -26.744)" fill="#283796" fill-rule="evenodd"/>
    <path id="Path_12" data-name="Path 12" d="M153.427,47.551a3.22,3.22,0,0,0,1.359.28,3.287,3.287,0,0,0,1.359-.276,3.042,3.042,0,0,0,1.059-.794,3.619,3.619,0,0,0,.682-1.23,5.364,5.364,0,0,0,0-3.161,3.516,3.516,0,0,0-.688-1.23,3.052,3.052,0,0,0-1.062-.785,3.44,3.44,0,0,0-2.694,0,2.977,2.977,0,0,0-1.057.79,3.619,3.619,0,0,0-.684,1.23,4.921,4.921,0,0,0-.24,1.581,5.015,5.015,0,0,0,.237,1.574,3.633,3.633,0,0,0,.677,1.23,3.021,3.021,0,0,0,1.056.792m.165-5.268a1.472,1.472,0,0,1,2.06-.344,1.771,1.771,0,0,1,.579.8,3.389,3.389,0,0,1,.2,1.235,3.158,3.158,0,0,1-.207,1.193,1.786,1.786,0,0,1-.582.792,1.467,1.467,0,0,1-1.715,0,1.788,1.788,0,0,1-.582-.792,3.159,3.159,0,0,1-.207-1.193,2.834,2.834,0,0,1,.448-1.692" transform="translate(-103.455 -26.348)" fill="#283796" fill-rule="evenodd"/>
    <path id="Path_13" data-name="Path 13" d="M173.971,47.859a2.413,2.413,0,0,0,.923.165,2.047,2.047,0,0,0,1.083-.27,1.648,1.648,0,0,0,.672-.818,3.48,3.48,0,0,0,.229-1.344v-4q0-1.188-.773-1.187t-.774,1.189v3.466a3.605,3.605,0,0,1-.106,1.036.405.405,0,0,1-.4.325,1.073,1.073,0,0,1-.461-.184,1.1,1.1,0,0,0-.523-.184.664.664,0,0,0-.517.216.788.788,0,0,0-.2.552.935.935,0,0,0,.221.595,1.527,1.527,0,0,0,.622.445" transform="translate(-118.258 -26.562)" fill="#283796" fill-rule="evenodd"/>
    <path id="Path_14" data-name="Path 14" d="M189.606,47.919q.772,0,.773-1.182V41.591q0-1.189-.773-1.187t-.774,1.187v5.146a1.675,1.675,0,0,0,.189.893.648.648,0,0,0,.585.289" transform="translate(-128.984 -26.562)" fill="#283796" fill-rule="evenodd"/>
    <path id="Path_15" data-name="Path 15" d="M198.884,46.275a2.971,2.971,0,0,1-.913-.186,2.915,2.915,0,0,0-.736-.187.846.846,0,0,0-.4.093.639.639,0,0,0-.27.268.809.809,0,0,0-.094.39.785.785,0,0,0,.285.571,2.092,2.092,0,0,0,.795.438,3.528,3.528,0,0,0,1.114.169,2.928,2.928,0,0,0,1.391-.318,2.258,2.258,0,0,0,.921-.874,2.512,2.512,0,0,0,.321-1.275,2.165,2.165,0,0,0-.2-.966,2,2,0,0,0-.623-.724,4.115,4.115,0,0,0-1.043-.536l-.525-.186a2.75,2.75,0,0,1-.394-.172.655.655,0,0,1-.232-.2.544.544,0,0,1-.08-.306.575.575,0,0,1,.2-.452.806.806,0,0,1,.555-.177,2.392,2.392,0,0,1,.629.129,2.375,2.375,0,0,0,.582.127.673.673,0,0,0,.51-.191.715.715,0,0,0,.184-.517.9.9,0,0,0-.509-.768,2.522,2.522,0,0,0-1.342-.314,2.671,2.671,0,0,0-1.289.3,2.147,2.147,0,0,0-.865.833,2.337,2.337,0,0,0-.305,1.185,1.762,1.762,0,0,0,.45,1.287,3.531,3.531,0,0,0,1.464.79,6.1,6.1,0,0,1,.667.258,1.026,1.026,0,0,1,.379.294.762.762,0,0,1-.627,1.217" transform="translate(-134.202 -26.368)" fill="#283796" fill-rule="evenodd"/>
    <path id="Path_16" data-name="Path 16" d="M199.2,33.945l1.039.88a.6.6,0,0,0,.391.151.609.609,0,0,0,.391-.151l1.04-.88a.838.838,0,0,0,.218-.252.639.639,0,0,0,.065-.3.58.58,0,0,0-.126-.386.4.4,0,0,0-.321-.151.9.9,0,0,0-.437.166l-.83.538-.83-.538a.908.908,0,0,0-.442-.166.41.41,0,0,0-.319.147.579.579,0,0,0-.129.39.6.6,0,0,0,.067.3,1.008,1.008,0,0,0,.222.254" transform="translate(-135.866 -21.597)" fill="#283796" fill-rule="evenodd"/>
    <path id="Path_17" data-name="Path 17" d="M211.7,41.465q0,.77,1.1.77h.569v4.682a1.645,1.645,0,0,0,.194.89.646.646,0,0,0,.58.294q.773,0,.773-1.184V42.235h.572q1.1,0,1.1-.77,0-.786-1.1-.785H212.8q-1.1,0-1.1.785" transform="translate(-144.603 -26.744)" fill="#283796" fill-rule="evenodd"/>
    <path id="Path_18" data-name="Path 18" d="M214.72,33.942l1.038.881a.624.624,0,0,0,.391.151.61.61,0,0,0,.391-.151l1.038-.881a.71.71,0,0,0,.289-.554.572.572,0,0,0-.129-.386.4.4,0,0,0-.323-.151.906.906,0,0,0-.437.166l-.83.538-.828-.538a.909.909,0,0,0-.438-.166.409.409,0,0,0-.323.148.577.577,0,0,0-.129.39.609.609,0,0,0,.065.3.936.936,0,0,0,.224.255" transform="translate(-146.469 -21.597)" fill="#283796" fill-rule="evenodd"/>
    <path id="Path_19" data-name="Path 19" d="M229.315,47.551a3.22,3.22,0,0,0,1.359.28,3.288,3.288,0,0,0,1.359-.276,3.038,3.038,0,0,0,1.059-.794,3.624,3.624,0,0,0,.682-1.23,5.361,5.361,0,0,0,0-3.161,3.521,3.521,0,0,0-.688-1.23,3.05,3.05,0,0,0-1.062-.785,3.439,3.439,0,0,0-2.694,0,2.973,2.973,0,0,0-1.057.79,3.614,3.614,0,0,0-.684,1.23,4.93,4.93,0,0,0-.24,1.581,5.025,5.025,0,0,0,.237,1.574,3.644,3.644,0,0,0,.677,1.23,3.018,3.018,0,0,0,1.056.792m.165-5.268a1.472,1.472,0,0,1,2.06-.344,1.766,1.766,0,0,1,.578.8,3.382,3.382,0,0,1,.205,1.235,3.158,3.158,0,0,1-.207,1.193,1.784,1.784,0,0,1-.582.792,1.467,1.467,0,0,1-1.715,0,1.788,1.788,0,0,1-.582-.792,3.158,3.158,0,0,1-.207-1.193,2.834,2.834,0,0,1,.448-1.692" transform="translate(-155.291 -26.348)" fill="#283796" fill-rule="evenodd"/>
    <path id="Path_20" data-name="Path 20" d="M251.169,47.756a.616.616,0,0,0,.23.2.719.719,0,0,0,.318.065.669.669,0,0,0,.466-.161,1.284,1.284,0,0,0,.318-.533l2-5.5a1.672,1.672,0,0,0,.1-.579.771.771,0,0,0-.2-.564.733.733,0,0,0-.548-.206.592.592,0,0,0-.458.177,1.618,1.618,0,0,0-.306.6l-1.327,4.1-1.431-4.163a1.458,1.458,0,0,0-.288-.552.563.563,0,0,0-.419-.168.757.757,0,0,0-.572.237.819.819,0,0,0-.229.592,1.335,1.335,0,0,0,.089.479l2.068,5.608a1.567,1.567,0,0,0,.186.364" transform="translate(-169.963 -26.608)" fill="#283796" fill-rule="evenodd"/>
    <path id="Path_21" data-name="Path 21" d="M269.23,47.919q.773,0,.772-1.184V43.363l2.794,3.993a1.148,1.148,0,0,0,.885.608.6.6,0,0,0,.537-.256,1.445,1.445,0,0,0,.17-.785V41.591q0-1.189-.772-1.187t-.774,1.187v3.433l-2.85-4.072a1.571,1.571,0,0,0-.381-.407.753.753,0,0,0-.439-.131q-.717,0-.717,1.117v5.206a1.672,1.672,0,0,0,.189.893.648.648,0,0,0,.585.289" transform="translate(-183.372 -26.562)" fill="#283796" fill-rule="evenodd"/>
    <path id="Path_22" data-name="Path 22" d="M289.428,47.812a.729.729,0,0,0,.377.1q.518,0,.741-.739l.232-.737h2.507l.19.677a1.423,1.423,0,0,0,.316.61.664.664,0,0,0,.495.2.741.741,0,0,0,.542-.218.761.761,0,0,0,.221-.567,1.821,1.821,0,0,0-.1-.529l-1.72-5.265a1.549,1.549,0,0,0-.447-.721,1.026,1.026,0,0,0-.688-.249,1,1,0,0,0-.711.267,1.956,1.956,0,0,0-.473.816l-1.765,5.18a1.407,1.407,0,0,0-.074.483.872.872,0,0,0,.1.412.674.674,0,0,0,.264.28m2.626-5.641.782,2.718h-1.62Z" transform="translate(-197.452 -26.542)" fill="#283796" fill-rule="evenodd"/>
    <path id="Path_23" data-name="Path 23" d="M134.138,79.978a1.718,1.718,0,0,0,.265-.813l.531-4.274,1,4.517a1.267,1.267,0,0,0,.321.654.857.857,0,0,0,.588.185,1.035,1.035,0,0,0,.392-.065.532.532,0,0,0,.255-.232,4.351,4.351,0,0,0,.275-.786q.167-.592.418-1.694t.564-2.581l.488,4.381q.112.977.765.976a.735.735,0,0,0,.566-.234.911.911,0,0,0,.216-.642,2.578,2.578,0,0,0-.036-.4l-.755-5.044a2.565,2.565,0,0,0-.19-.679.87.87,0,0,0-.345-.4,1.081,1.081,0,0,0-.555-.129q-.837,0-1.057.982l-.963,4.39-1.03-4.38q-.226-.992-1.079-.991a1.014,1.014,0,0,0-.531.126.856.856,0,0,0-.329.371,2.45,2.45,0,0,0-.188.651l-.83,5a3.05,3.05,0,0,0-.056.5.917.917,0,0,0,.21.632.7.7,0,0,0,.545.234.641.641,0,0,0,.544-.26" transform="translate(-90.737 -47.808)" fill="#283796" fill-rule="evenodd"/>
    <path id="Path_24" data-name="Path 24" d="M161.134,80.238q.773,0,.773-1.182V73.91q0-1.188-.773-1.187t-.774,1.187v5.146a1.671,1.671,0,0,0,.189.893.648.648,0,0,0,.585.289" transform="translate(-109.536 -47.809)" fill="#283796" fill-rule="evenodd"/>
    <path id="Path_25" data-name="Path 25" d="M169.92,80.238q.773,0,.773-1.184V75.682l2.794,3.993a1.148,1.148,0,0,0,.885.608.6.6,0,0,0,.537-.256,1.446,1.446,0,0,0,.17-.785V73.91q0-1.188-.773-1.187t-.774,1.187v3.433l-2.85-4.072a1.569,1.569,0,0,0-.382-.407.752.752,0,0,0-.439-.131q-.717,0-.717,1.117v5.206a1.67,1.67,0,0,0,.189.893.648.648,0,0,0,.585.289" transform="translate(-115.537 -47.809)" fill="#283796" fill-rule="evenodd"/>
    <path id="Path_26" data-name="Path 26" d="M192.545,80.238q.773,0,.773-1.182V73.91q0-1.188-.773-1.187t-.774,1.187v5.146a1.673,1.673,0,0,0,.189.893.647.647,0,0,0,.585.289" transform="translate(-130.991 -47.809)" fill="#283796" fill-rule="evenodd"/>
    <path id="Path_27" data-name="Path 27" d="M201.823,78.594a2.973,2.973,0,0,1-.913-.186,2.92,2.92,0,0,0-.736-.187.847.847,0,0,0-.4.093.637.637,0,0,0-.27.268.811.811,0,0,0-.094.39.788.788,0,0,0,.284.571,2.1,2.1,0,0,0,.8.438,3.537,3.537,0,0,0,1.114.168,2.93,2.93,0,0,0,1.391-.318,2.264,2.264,0,0,0,.921-.874,2.515,2.515,0,0,0,.32-1.275,2.159,2.159,0,0,0-.2-.965,2,2,0,0,0-.623-.724,4.1,4.1,0,0,0-1.043-.536l-.525-.186a2.763,2.763,0,0,1-.394-.172.651.651,0,0,1-.232-.2.544.544,0,0,1-.079-.306.575.575,0,0,1,.2-.452.808.808,0,0,1,.555-.177,2.4,2.4,0,0,1,.629.129,2.371,2.371,0,0,0,.582.127.674.674,0,0,0,.51-.191.715.715,0,0,0,.185-.517.9.9,0,0,0-.509-.768,2.522,2.522,0,0,0-1.342-.314,2.669,2.669,0,0,0-1.289.3,2.149,2.149,0,0,0-.865.833,2.337,2.337,0,0,0-.306,1.185,1.765,1.765,0,0,0,.45,1.287,3.54,3.54,0,0,0,1.464.79,6.129,6.129,0,0,1,.667.258,1.03,1.03,0,0,1,.378.293.763.763,0,0,1-.626,1.217" transform="translate(-136.209 -47.615)" fill="#283796" fill-rule="evenodd"/>
    <path id="Path_28" data-name="Path 28" d="M216.5,80.125a.647.647,0,0,0,.58.294q.773,0,.773-1.184V74.553h.572q1.1,0,1.1-.769,0-.786-1.1-.786h-2.688q-1.1,0-1.1.786,0,.77,1.1.769h.569v4.682a1.645,1.645,0,0,0,.194.89" transform="translate(-146.61 -47.99)" fill="#283796" fill-rule="evenodd"/>
    <path id="Path_29" data-name="Path 29" d="M234.146,74.553c.731,0,1.1-.256,1.1-.769s-.367-.786-1.1-.786h-1.736a1.43,1.43,0,0,0-.655.124.651.651,0,0,0-.323.375,2.1,2.1,0,0,0-.089.675v5.1a1.7,1.7,0,0,0,.094.634.586.586,0,0,0,.318.319,1.638,1.638,0,0,0,.636.1h1.8q1.1,0,1.1-.775t-1.1-.77h-1.3V77.409h1.084q1.1,0,1.1-.77t-1.1-.775h-1.084V74.553Z" transform="translate(-158.021 -47.99)" fill="#283796" fill-rule="evenodd"/>
    <path id="Path_30" data-name="Path 30" d="M251.387,75.288a2.162,2.162,0,0,0-.676-1.663A2.7,2.7,0,0,0,248.8,73h-1.2a1.429,1.429,0,0,0-.654.124.653.653,0,0,0-.323.375,2.106,2.106,0,0,0-.089.675v5.063a1.671,1.671,0,0,0,.189.895.647.647,0,0,0,.585.289q.773,0,.772-1.184v-1.8l1.8,2.442a2.369,2.369,0,0,0,.427.455.651.651,0,0,0,.4.144.686.686,0,0,0,.526-.227.792.792,0,0,0,.21-.559,1.606,1.606,0,0,0-.461-.957l-1.221-1.464a1.957,1.957,0,0,0,1.2-.67,2.006,2.006,0,0,0,.426-1.31m-1.866.789a1.017,1.017,0,0,1-.728.239h-.712V74.532h.731a1.192,1.192,0,0,1,.528.107.719.719,0,0,1,.326.3.947.947,0,0,1,.11.468.873.873,0,0,1-.255.668" transform="translate(-168.398 -47.99)" fill="#283796" fill-rule="evenodd"/>
    <path id="Path_31" data-name="Path 31" d="M265.769,78.594a2.971,2.971,0,0,1-.912-.186,2.921,2.921,0,0,0-.736-.187.847.847,0,0,0-.4.093.639.639,0,0,0-.27.268.811.811,0,0,0-.094.39.787.787,0,0,0,.284.571,2.1,2.1,0,0,0,.795.438,3.542,3.542,0,0,0,1.114.168,2.929,2.929,0,0,0,1.391-.318,2.258,2.258,0,0,0,.92-.874,2.509,2.509,0,0,0,.321-1.275,2.164,2.164,0,0,0-.2-.965,2,2,0,0,0-.623-.724,4.115,4.115,0,0,0-1.043-.536l-.525-.186a2.754,2.754,0,0,1-.394-.172.65.65,0,0,1-.232-.2.541.541,0,0,1-.08-.306.575.575,0,0,1,.2-.452.806.806,0,0,1,.555-.177,2.393,2.393,0,0,1,.629.129,2.375,2.375,0,0,0,.582.127.675.675,0,0,0,.51-.191.715.715,0,0,0,.184-.517.9.9,0,0,0-.508-.768,2.521,2.521,0,0,0-1.341-.314,2.671,2.671,0,0,0-1.289.3,2.149,2.149,0,0,0-.865.833,2.336,2.336,0,0,0-.305,1.185,1.762,1.762,0,0,0,.45,1.287,3.539,3.539,0,0,0,1.464.79,6.077,6.077,0,0,1,.667.258,1.029,1.029,0,0,1,.379.293.763.763,0,0,1-.627,1.217" transform="translate(-179.888 -47.615)" fill="#283796" fill-rule="evenodd"/>
    <path id="Path_32" data-name="Path 32" d="M280.443,80.125a.646.646,0,0,0,.58.294q.773,0,.773-1.184V74.553h.572q1.1,0,1.1-.769,0-.786-1.1-.786H279.68q-1.1,0-1.1.786,0,.77,1.1.769h.569v4.682a1.645,1.645,0,0,0,.194.89" transform="translate(-190.289 -47.99)" fill="#283796" fill-rule="evenodd"/>
    <path id="Path_33" data-name="Path 33" d="M295.34,80.075a.614.614,0,0,0,.231.2.712.712,0,0,0,.318.065.67.67,0,0,0,.466-.162,1.283,1.283,0,0,0,.318-.532l2-5.5a1.678,1.678,0,0,0,.1-.579.771.771,0,0,0-.2-.564.733.733,0,0,0-.548-.206.592.592,0,0,0-.458.177,1.608,1.608,0,0,0-.305.6l-1.327,4.1-1.431-4.163a1.456,1.456,0,0,0-.287-.552.562.562,0,0,0-.42-.169.758.758,0,0,0-.572.237.819.819,0,0,0-.229.592,1.335,1.335,0,0,0,.089.479l2.068,5.608a1.57,1.57,0,0,0,.186.365" transform="translate(-200.135 -47.855)" fill="#283796" fill-rule="evenodd"/>
    <path id="Path_34" data-name="Path 34" d="M311.089,80.13a.731.731,0,0,0,.377.1q.517,0,.741-.739l.232-.737h2.507l.19.677a1.418,1.418,0,0,0,.316.61.664.664,0,0,0,.495.2.741.741,0,0,0,.542-.218.761.761,0,0,0,.221-.567,1.824,1.824,0,0,0-.1-.529l-1.72-5.265a1.546,1.546,0,0,0-.447-.721,1.026,1.026,0,0,0-.688-.249,1.006,1.006,0,0,0-.711.267,1.96,1.96,0,0,0-.474.816l-1.765,5.18a1.411,1.411,0,0,0-.074.483.872.872,0,0,0,.1.412.675.675,0,0,0,.264.28m2.626-5.641.782,2.718h-1.62Z" transform="translate(-212.248 -47.789)" fill="#283796" fill-rule="evenodd"/>
    <path id="Path_35" data-name="Path 35" d="M134.33,112.393a.617.617,0,0,0,.23.2.71.71,0,0,0,.318.065.67.67,0,0,0,.466-.161,1.291,1.291,0,0,0,.318-.533l2-5.5a1.667,1.667,0,0,0,.1-.579.769.769,0,0,0-.2-.563.733.733,0,0,0-.548-.207.591.591,0,0,0-.458.177,1.611,1.611,0,0,0-.305.6l-1.327,4.1-1.43-4.163a1.455,1.455,0,0,0-.288-.552.563.563,0,0,0-.419-.169.758.758,0,0,0-.572.237.82.82,0,0,0-.229.593,1.337,1.337,0,0,0,.089.479l2.068,5.608a1.582,1.582,0,0,0,.186.365" transform="translate(-90.155 -69.101)" fill="#283796" fill-rule="evenodd"/>
    <path id="Path_36" data-name="Path 36" d="M152.391,112.556q.773,0,.773-1.184V108l2.794,3.993a1.149,1.149,0,0,0,.886.608.6.6,0,0,0,.537-.256,1.449,1.449,0,0,0,.17-.785v-5.332q0-1.188-.773-1.187T156,106.227v3.433l-2.85-4.072a1.574,1.574,0,0,0-.382-.407.752.752,0,0,0-.439-.131q-.717,0-.717,1.117v5.206a1.672,1.672,0,0,0,.189.893.648.648,0,0,0,.585.289" transform="translate(-103.564 -69.055)" fill="#283796" fill-rule="evenodd"/>
    <path id="Path_37" data-name="Path 37" d="M175.016,112.556q.773,0,.773-1.182v-5.146q0-1.188-.773-1.187t-.774,1.187v5.146a1.676,1.676,0,0,0,.189.893.648.648,0,0,0,.585.289" transform="translate(-119.018 -69.055)" fill="#283796" fill-rule="evenodd"/>
    <path id="Path_38" data-name="Path 38" d="M182.392,112.443a.648.648,0,0,0,.58.294q.773,0,.773-1.184v-4.682h.572q1.1,0,1.1-.769,0-.786-1.1-.786h-2.688q-1.1,0-1.1.786,0,.77,1.1.769h.569v4.682a1.648,1.648,0,0,0,.194.89" transform="translate(-123.314 -69.236)" fill="#283796" fill-rule="evenodd"/>
    <path id="Path_39" data-name="Path 39" d="M202.09,107.607a2.163,2.163,0,0,0-.676-1.663,2.7,2.7,0,0,0-1.909-.627h-1.2a1.431,1.431,0,0,0-.655.124.653.653,0,0,0-.323.375,2.1,2.1,0,0,0-.089.675v5.064a1.672,1.672,0,0,0,.189.895.648.648,0,0,0,.585.289q.773,0,.773-1.184v-1.8l1.8,2.442a2.358,2.358,0,0,0,.427.455.651.651,0,0,0,.4.144.687.687,0,0,0,.526-.227.793.793,0,0,0,.21-.558,1.607,1.607,0,0,0-.461-.957l-1.221-1.464a1.955,1.955,0,0,0,1.2-.67,2,2,0,0,0,.426-1.31m-1.866.789a1.017,1.017,0,0,1-.728.239h-.712v-1.784h.731a1.191,1.191,0,0,1,.527.107.717.717,0,0,1,.326.3.943.943,0,0,1,.11.467.874.874,0,0,1-.254.668" transform="translate(-134.725 -69.237)" fill="#283796" fill-rule="evenodd"/>
    <path id="Path_40" data-name="Path 40" d="M213.67,112.449a.732.732,0,0,0,.377.1q.517,0,.741-.739l.232-.737h2.507l.19.677a1.411,1.411,0,0,0,.316.61.664.664,0,0,0,.494.2.743.743,0,0,0,.542-.218.761.761,0,0,0,.221-.567,1.827,1.827,0,0,0-.1-.529l-1.72-5.264a1.551,1.551,0,0,0-.447-.722,1.027,1.027,0,0,0-.688-.249,1,1,0,0,0-.711.267,1.961,1.961,0,0,0-.473.816l-1.765,5.18a1.408,1.408,0,0,0-.075.483.866.866,0,0,0,.1.412.674.674,0,0,0,.264.28m2.626-5.641.782,2.718h-1.62Z" transform="translate(-145.704 -69.036)" fill="#283796" fill-rule="evenodd"/>
    <path id="Path_41" data-name="Path 41" d="M246.655,98.579l1.038.881a.6.6,0,0,0,.391.151.608.608,0,0,0,.389-.151l1.038-.881a.851.851,0,0,0,.219-.25.661.661,0,0,0,.063-.3.578.578,0,0,0-.126-.386.392.392,0,0,0-.319-.151.9.9,0,0,0-.437.167l-.828.538-.828-.538a.9.9,0,0,0-.442-.167.409.409,0,0,0-.319.148.584.584,0,0,0-.127.39.622.622,0,0,0,.065.3.982.982,0,0,0,.222.252" transform="translate(-168.284 -64.09)" fill="#283796" fill-rule="evenodd"/>
    <path id="Path_42" data-name="Path 42" d="M243.152,106.562a4.5,4.5,0,0,0-.44,2.029,4.962,4.962,0,0,0,.24,1.591,3.642,3.642,0,0,0,.682,1.229,2.985,2.985,0,0,0,1.057.786,3.3,3.3,0,0,0,1.342.271,3.216,3.216,0,0,0,1.094-.177,1.916,1.916,0,0,0,.768-.468.892.892,0,0,0,.275-.624.753.753,0,0,0-.191-.51.559.559,0,0,0-.428-.22,2.368,2.368,0,0,0-.616.189,2.312,2.312,0,0,1-.826.189,1.552,1.552,0,0,1-.9-.267,1.724,1.724,0,0,1-.6-.768,3.018,3.018,0,0,1-.211-1.182,3.21,3.21,0,0,1,.21-1.21,1.754,1.754,0,0,1,.585-.792,1.432,1.432,0,0,1,.87-.275,2.584,2.584,0,0,1,.769.143,2.478,2.478,0,0,0,.593.144.589.589,0,0,0,.461-.232.784.784,0,0,0,.2-.522.822.822,0,0,0-.259-.56,1.808,1.808,0,0,0-.728-.443,3.263,3.263,0,0,0-2.741.312,3.293,3.293,0,0,0-1.2,1.366" transform="translate(-165.787 -68.841)" fill="#283796" fill-rule="evenodd"/>
    <path id="Path_43" data-name="Path 43" d="M266.738,107.607a2.163,2.163,0,0,0-.676-1.663,2.7,2.7,0,0,0-1.909-.627h-1.2a1.429,1.429,0,0,0-.654.124.654.654,0,0,0-.323.375,2.107,2.107,0,0,0-.089.675v5.064a1.672,1.672,0,0,0,.19.895.647.647,0,0,0,.585.289q.773,0,.772-1.184v-1.8l1.8,2.442a2.357,2.357,0,0,0,.428.455.651.651,0,0,0,.4.144.686.686,0,0,0,.526-.227.792.792,0,0,0,.21-.558,1.606,1.606,0,0,0-.461-.957l-1.221-1.464a1.955,1.955,0,0,0,1.2-.67,2,2,0,0,0,.426-1.31m-1.866.789a1.017,1.017,0,0,1-.728.239h-.712v-1.784h.731a1.19,1.19,0,0,1,.527.107.716.716,0,0,1,.326.3.946.946,0,0,1,.11.467.873.873,0,0,1-.254.668" transform="translate(-178.883 -69.237)" fill="#283796" fill-rule="evenodd"/>
    <path id="Path_44" data-name="Path 44" d="M3.747,48.753H33.694a3.912,3.912,0,0,0,3.744-4.047V12.333a3.912,3.912,0,0,0-3.744-4.047H3.744A3.912,3.912,0,0,0,0,12.333V44.706a3.912,3.912,0,0,0,3.744,4.047Zm7.435-26.978H6.24a2.706,2.706,0,0,1,0-5.4H23.711c5.5,0,9.983,4.847,9.983,10.791s-4.485,10.791-9.983,10.791H21.839c-.624,0-.624.675-.624.675v3.372a2.608,2.608,0,0,1-2.5,2.7,2.608,2.608,0,0,1-2.5-2.7V38.636s0-.674-.624-.675H6.24a2.608,2.608,0,0,1-2.5-2.7,2.813,2.813,0,0,1,.6-1.756l7.4-10.689a.667.667,0,0,0-.565-1.044" transform="translate(0 -5.447)" fill="#283796" fill-rule="evenodd"/>
    <path id="Path_45" data-name="Path 45" d="M46.792,58.45h2.5a5.412,5.412,0,0,0,0-10.791h-4.7a.6.6,0,0,0-.473.24l-6.583,9.507a.683.683,0,0,0,.571,1.044Zm-2.5-6.744a2.706,2.706,0,1,1-2.5,2.7,2.608,2.608,0,0,1,2.5-2.7" transform="translate(-25.577 -31.332)" fill="#283796" fill-rule="evenodd"/>
    <path id="Path_46" data-name="Path 46" d="M337.743,41.459a4.968,4.968,0,0,0-1.219,2.921c0,2.634,1.8,3.78,4.133,3.78h17.7a3.533,3.533,0,0,0,3.814-3.78c0-2.634-1.8-3.78-4.132-3.78h-9.7c4.5-6.128,12.715-14.031,12.715-21.991,0-7.273-5.244-11.913-11.762-11.913s-12.451,5.784-12.451,13c0,2.235,1.325,4.181,3.868,4.181,5.087,0,2.173-9.277,8.265-9.277,2.173,0,3.814,2.061,3.814,4.41a9.93,9.93,0,0,1-1.854,5.327c-4.025,6.3-8.794,11.453-13.192,17.123" transform="translate(-229.866 -4.402)" fill="#283796"/>
    <path id="Path_47" data-name="Path 47" d="M433.974,49.793a4.3,4.3,0,0,0,4.119-4.453V13.058a4.374,4.374,0,0,0-3.217-4.324c-.087-.022-.168-.053-.258-.069a3.771,3.771,0,0,0-2.9.671c-.47.335-10.951,8.151-10.951,8.151a4.712,4.712,0,0,0,0,6.3c1.609,1.739,3.819,1.486,5.825,0l3.264-2.169V45.34a4.3,4.3,0,0,0,4.12,4.453" transform="translate(-286.584 -5.657)" fill="#283796"/>
    <path id="Path_48" data-name="Path 48" d="M498.663,49.793a4.3,4.3,0,0,0,4.119-4.453V13.058a4.374,4.374,0,0,0-3.218-4.324c-.086-.022-.167-.053-.257-.069a3.771,3.771,0,0,0-2.9.671c-.471.335-10.95,8.151-10.95,8.151a4.71,4.71,0,0,0,0,6.3c1.609,1.739,3.819,1.486,5.824,0l3.266-2.169V45.34a4.3,4.3,0,0,0,4.119,4.453" transform="translate(-330.769 -5.657)" fill="#283796"/>
  </g>
</svg>
