<svg xmlns="http://www.w3.org/2000/svg" width="69.999" height="70" viewBox="0 0 69.999 70">
  <g id="ZPS_LOGO_MENU" transform="translate(-171.984 -15)">
    <g id="Group_7" data-name="Group 7">
      <path id="Vector" d="M13.392,0,13.4.012,9.416,4H3.985L0,.012.012,0H4.79c.9.9,1.576,1.577,1.909,1.915L8.612,0Z" transform="translate(218.051 48.683)" fill="#ffa100"/>
      <path id="Vector-2" data-name="Vector" d="M3.886,6.984.019,10.854H0L0,4.4,4.4,0h6.451V.02L6.982,3.89h-3.1" transform="translate(171.992 15)" fill="#ffa100"/>
      <path id="Vector-3" data-name="Vector" d="M10.815,6.425l-4.394,4.4H0L3.882,6.936h3.05c0-.531,0-1.609,0-3.041L10.815,0Z" transform="translate(231.166 74.178)" fill="#ffa100"/>
      <path id="Vector-4" data-name="Vector" d="M6.952,6.952l3.889,3.882H4.4L0,6.437V0L3.883,3.886c0,1.444,0,2.522,0,3.062.537,0,1.62,0,3.066,0Z" transform="translate(171.994 74.166)" fill="#ffa100"/>
    </g>
    <g id="Group_6" data-name="Group 6">
      <path id="Vector-5" data-name="Vector" d="M13.821,16.446H0V13.107L8.153,3.512H.594V0H13.527V3.6L5.481,12.946h8.34" transform="translate(181.598 54.967)" fill="#747678"/>
      <path id="Vector-6" data-name="Vector" d="M4.183.33V2.788A6.951,6.951,0,0,1,5.649,1.094,5.37,5.37,0,0,1,9.034,0a6.39,6.39,0,0,1,4.84,2.116c1.322,1.424,1.98,3.5,1.98,6.244q0,4.333-1.937,6.614a6.262,6.262,0,0,1-4.991,2.265,5.236,5.236,0,0,1-3.237-.961,6.154,6.154,0,0,1-1.378-1.561v8.525H0V.33ZM4.144,8.975q0,2.866,1.513,4.039a3.321,3.321,0,0,0,2.1.672A3.024,3.024,0,0,0,10.451,12.3a6.583,6.583,0,0,0,.925-3.7,6.592,6.592,0,0,0-.855-3.375A2.959,2.959,0,0,0,7.749,3.758a3.151,3.151,0,0,0-3.16,2.225,8.521,8.521,0,0,0-.445,2.993Z" transform="translate(198.865 54.659)" fill="#747678"/>
      <path id="Vector-7" data-name="Vector" d="M13.744,8.83A4.12,4.12,0,0,1,15,11.9a4.951,4.951,0,0,1-1.818,3.967q-1.818,1.545-5.62,1.541-3.873,0-5.723-1.633A5.3,5.3,0,0,1,0,11.622H4.353a2.85,2.85,0,0,0,.588,1.629,4,4,0,0,0,2.976.861,4.519,4.519,0,0,0,2.024-.374,1.25,1.25,0,0,0,.123-2.233,24.791,24.791,0,0,0-4.491-1.287A9.28,9.28,0,0,1,1.644,8.484,3.745,3.745,0,0,1,.508,5.536a5.118,5.118,0,0,1,1.782-3.9A7.151,7.151,0,0,1,7.315,0a9.124,9.124,0,0,1,5,1.235A5.271,5.271,0,0,1,14.54,5.487H10.23a2.568,2.568,0,0,0-.467-1.312A2.874,2.874,0,0,0,7.38,3.291a3.345,3.345,0,0,0-1.974.442,1.279,1.279,0,0,0-.591,1.03,1.113,1.113,0,0,0,.633,1.066A27.413,27.413,0,0,0,9.908,7.02a8.13,8.13,0,0,1,3.836,1.81Z" transform="translate(217.234 54.553)" fill="#747678"/>
      <path id="Vector-8" data-name="Vector" d="M45.181,3.886H3.9L0,0H.383L10.732,0V0C19.3,0,25.977,0,38.962,0h10.11Z" transform="translate(182.463 81.114)" fill="#747678"/>
      <path id="Vector-9" data-name="Vector" d="M0,0,3.885,3.893l0,11.155,0,0V45.188L0,49.085v-.411L0,38.526H0c0-8.785,0-15.487,0-27.42Z" transform="translate(238.096 25.476)" fill="#747678"/>
      <path id="Vector-10" data-name="Vector" d="M0,3.886H49.036L45.143,0H3.889Z" transform="translate(171.984 74.533) rotate(-90)" fill="#747678"/>
      <path id="Vector-11" data-name="Vector" d="M3.889,0H45.125l3.9,3.89-8.872,0v0c-10.76,0-17.618,0-32.67,0H0Z" transform="translate(182.49 15)" fill="#747678"/>
    </g>
  </g>
</svg>
